<svg width="515" height="81" viewBox="0 0 515 81" fill="none" xmlns="http://www.w3.org/2000/svg">
<path d="M102.526 50.5455C102.526 51.696 102.318 52.6903 101.902 53.5284C101.487 54.3665 100.917 55.0128 100.192 55.4673C99.468 55.9219 98.6406 56.1491 97.7102 56.1491C96.7798 56.1491 95.9524 55.9219 95.228 55.4673C94.5036 55.0128 93.9336 54.3665 93.5181 53.5284C93.1026 52.6903 92.8949 51.696 92.8949 50.5455C92.8949 49.3949 93.1026 48.4006 93.5181 47.5625C93.9336 46.7244 94.5036 46.0781 95.228 45.6236C95.9524 45.169 96.7798 44.9418 97.7102 44.9418C98.6406 44.9418 99.468 45.169 100.192 45.6236C100.917 46.0781 101.487 46.7244 101.902 47.5625C102.318 48.4006 102.526 49.3949 102.526 50.5455ZM101.247 50.5455C101.247 49.6009 101.089 48.8036 100.773 48.1538C100.461 47.5039 100.036 47.0121 99.5 46.6783C98.9673 46.3445 98.3707 46.1776 97.7102 46.1776C97.0497 46.1776 96.4513 46.3445 95.9151 46.6783C95.3825 47.0121 94.9581 47.5039 94.642 48.1538C94.3295 48.8036 94.1733 49.6009 94.1733 50.5455C94.1733 51.4901 94.3295 52.2873 94.642 52.9371C94.9581 53.587 95.3825 54.0788 95.9151 54.4126C96.4513 54.7464 97.0497 54.9134 97.7102 54.9134C98.3707 54.9134 98.9673 54.7464 99.5 54.4126C100.036 54.0788 100.461 53.587 100.773 52.9371C101.089 52.2873 101.247 51.4901 101.247 50.5455ZM104.576 56V47.8182H105.791V49.054H105.876C106.025 48.6491 106.295 48.3207 106.686 48.0685C107.076 47.8164 107.517 47.6903 108.007 47.6903C108.099 47.6903 108.214 47.6921 108.353 47.6957C108.491 47.6992 108.596 47.7045 108.667 47.7116V48.9901C108.625 48.9794 108.527 48.9634 108.374 48.9421C108.225 48.9173 108.067 48.9048 107.9 48.9048C107.502 48.9048 107.147 48.9883 106.835 49.1552C106.526 49.3185 106.281 49.5458 106.1 49.837C105.922 50.1246 105.833 50.4531 105.833 50.8224V56H104.576ZM112.998 56.1705C112.316 56.1705 111.714 55.9982 111.192 55.6538C110.67 55.3058 110.262 54.8157 109.967 54.1836C109.672 53.5479 109.525 52.7969 109.525 51.9304C109.525 51.071 109.672 50.3253 109.967 49.6932C110.262 49.0611 110.672 48.5728 111.197 48.2283C111.723 47.8839 112.33 47.7116 113.019 47.7116C113.552 47.7116 113.973 47.8004 114.282 47.978C114.594 48.152 114.832 48.3509 114.995 48.5746C115.162 48.7947 115.292 48.9759 115.384 49.1179H115.491V45.0909H116.748V56H115.533V54.7429H115.384C115.292 54.892 115.161 55.0803 114.99 55.3075C114.82 55.5312 114.576 55.7319 114.26 55.9094C113.944 56.0835 113.523 56.1705 112.998 56.1705ZM113.168 55.0412C113.673 55.0412 114.099 54.9098 114.447 54.647C114.795 54.3807 115.059 54.0131 115.24 53.5444C115.422 53.0721 115.512 52.527 115.512 51.9091C115.512 51.2983 115.423 50.7638 115.246 50.3058C115.068 49.8441 114.805 49.4854 114.457 49.2298C114.109 48.9705 113.68 48.8409 113.168 48.8409C112.636 48.8409 112.192 48.9776 111.837 49.2511C111.485 49.521 111.221 49.8885 111.043 50.3537C110.869 50.8153 110.782 51.3338 110.782 51.9091C110.782 52.4915 110.871 53.0206 111.048 53.4964C111.229 53.9687 111.496 54.3452 111.847 54.6257C112.202 54.9027 112.643 55.0412 113.168 55.0412ZM122.655 56.1705C121.867 56.1705 121.187 55.9964 120.615 55.6484C120.047 55.2969 119.608 54.8068 119.299 54.1783C118.994 53.5462 118.841 52.8111 118.841 51.973C118.841 51.1349 118.994 50.3963 119.299 49.7571C119.608 49.1143 120.038 48.6136 120.588 48.255C121.142 47.8928 121.789 47.7116 122.527 47.7116C122.953 47.7116 123.374 47.7827 123.79 47.9247C124.205 48.0668 124.583 48.2976 124.924 48.6172C125.265 48.9332 125.537 49.3523 125.739 49.8743C125.942 50.3963 126.043 51.0391 126.043 51.8026V52.3352H119.736V51.2486H124.765C124.765 50.7869 124.672 50.375 124.488 50.0128C124.306 49.6506 124.047 49.3647 123.71 49.1552C123.376 48.9457 122.982 48.8409 122.527 48.8409C122.027 48.8409 121.593 48.9652 121.228 49.2138C120.865 49.4588 120.587 49.7784 120.391 50.1726C120.196 50.5668 120.098 50.9893 120.098 51.4403V52.1648C120.098 52.7827 120.205 53.3065 120.418 53.7362C120.635 54.1623 120.935 54.4872 121.318 54.7109C121.702 54.9311 122.147 55.0412 122.655 55.0412C122.985 55.0412 123.284 54.995 123.55 54.9027C123.82 54.8068 124.053 54.6648 124.248 54.4766C124.443 54.2848 124.594 54.0469 124.701 53.7628L125.915 54.1037C125.787 54.5156 125.572 54.8778 125.271 55.1903C124.969 55.4993 124.596 55.7408 124.152 55.9148C123.708 56.0852 123.209 56.1705 122.655 56.1705ZM127.955 56V47.8182H129.17V49.054H129.255C129.404 48.6491 129.674 48.3207 130.065 48.0685C130.455 47.8164 130.896 47.6903 131.386 47.6903C131.478 47.6903 131.593 47.6921 131.732 47.6957C131.87 47.6992 131.975 47.7045 132.046 47.7116V48.9901C132.004 48.9794 131.906 48.9634 131.753 48.9421C131.604 48.9173 131.446 48.9048 131.279 48.9048C130.881 48.9048 130.526 48.9883 130.214 49.1552C129.905 49.3185 129.66 49.5458 129.479 49.837C129.301 50.1246 129.212 50.4531 129.212 50.8224V56H127.955Z" fill="#28224B"/>
<path d="M268.409 57V45.3636H275.386V46.6136H269.818V50.5455H274.864V51.7955H269.818V57H268.409ZM276.824 57H275.347L279.619 45.3636H281.074L285.347 57H283.869L280.392 47.2045H280.301L276.824 57ZM277.369 52.4545H283.324V53.7045H277.369V52.4545ZM290.839 53.3636H292.385L293.68 55.0682L294.021 55.5227L295.953 58.0909H294.408L293.135 56.3864L292.817 55.9545L290.839 53.3636ZM296.43 51.1818C296.43 52.4091 296.209 53.4697 295.766 54.3636C295.322 55.2576 294.714 55.947 293.942 56.4318C293.169 56.9167 292.286 57.1591 291.294 57.1591C290.302 57.1591 289.419 56.9167 288.646 56.4318C287.874 55.947 287.266 55.2576 286.822 54.3636C286.379 53.4697 286.158 52.4091 286.158 51.1818C286.158 49.9545 286.379 48.8939 286.822 48C287.266 47.1061 287.874 46.4167 288.646 45.9318C289.419 45.447 290.302 45.2045 291.294 45.2045C292.286 45.2045 293.169 45.447 293.942 45.9318C294.714 46.4167 295.322 47.1061 295.766 48C296.209 48.8939 296.43 49.9545 296.43 51.1818ZM295.067 51.1818C295.067 50.1742 294.898 49.3239 294.561 48.6307C294.228 47.9375 293.775 47.4129 293.203 47.0568C292.635 46.7008 291.999 46.5227 291.294 46.5227C290.589 46.5227 289.951 46.7008 289.379 47.0568C288.811 47.4129 288.358 47.9375 288.021 48.6307C287.688 49.3239 287.521 50.1742 287.521 51.1818C287.521 52.1894 287.688 53.0398 288.021 53.733C288.358 54.4261 288.811 54.9508 289.379 55.3068C289.951 55.6629 290.589 55.8409 291.294 55.8409C291.999 55.8409 292.635 55.6629 293.203 55.3068C293.775 54.9508 294.228 54.4261 294.561 53.733C294.898 53.0398 295.067 52.1894 295.067 51.1818Z" fill="#28224B"/>
<path d="M17.321 56V45.0909H18.642V49.9489H24.4588V45.0909H25.7798V56H24.4588V51.1207H18.642V56H17.321ZM31.5779 56.1705C30.8393 56.1705 30.1912 55.9947 29.6337 55.6431C29.0797 55.2915 28.6465 54.7997 28.334 54.1676C28.025 53.5355 27.8706 52.7969 27.8706 51.9517C27.8706 51.0994 28.025 50.3555 28.334 49.7198C28.6465 49.0842 29.0797 48.5906 29.6337 48.239C30.1912 47.8874 30.8393 47.7116 31.5779 47.7116C32.3166 47.7116 32.9629 47.8874 33.5169 48.239C34.0744 48.5906 34.5076 49.0842 34.8166 49.7198C35.1291 50.3555 35.2853 51.0994 35.2853 51.9517C35.2853 52.7969 35.1291 53.5355 34.8166 54.1676C34.5076 54.7997 34.0744 55.2915 33.5169 55.6431C32.9629 55.9947 32.3166 56.1705 31.5779 56.1705ZM31.5779 55.0412C32.139 55.0412 32.6007 54.8974 32.9629 54.6097C33.3251 54.3221 33.5932 53.9439 33.7672 53.4751C33.9412 53.0064 34.0282 52.4986 34.0282 51.9517C34.0282 51.4048 33.9412 50.8952 33.7672 50.4229C33.5932 49.9506 33.3251 49.5689 32.9629 49.2777C32.6007 48.9865 32.139 48.8409 31.5779 48.8409C31.0169 48.8409 30.5552 48.9865 30.193 49.2777C29.8308 49.5689 29.5627 49.9506 29.3887 50.4229C29.2147 50.8952 29.1277 51.4048 29.1277 51.9517C29.1277 52.4986 29.2147 53.0064 29.3887 53.4751C29.5627 53.9439 29.8308 54.3221 30.193 54.6097C30.5552 54.8974 31.0169 55.0412 31.5779 55.0412ZM37.2043 56V47.8182H38.4188V49.0966H38.5253C38.6958 48.6598 38.971 48.3207 39.3509 48.0792C39.7309 47.8342 40.1872 47.7116 40.7199 47.7116C41.2597 47.7116 41.7089 47.8342 42.0676 48.0792C42.4298 48.3207 42.7121 48.6598 42.9145 49.0966H42.9997C43.2093 48.674 43.5235 48.3384 43.9426 48.0898C44.3616 47.8377 44.8641 47.7116 45.45 47.7116C46.1816 47.7116 46.7799 47.9407 47.2451 48.3988C47.7103 48.8533 47.9429 49.5618 47.9429 50.5241V56H46.6858V50.5241C46.6858 49.9205 46.5207 49.489 46.1904 49.2298C45.8602 48.9705 45.4713 48.8409 45.0239 48.8409C44.4486 48.8409 44.0029 49.0149 43.6869 49.3629C43.3708 49.7074 43.2128 50.1442 43.2128 50.6733V56H41.9344V50.3963C41.9344 49.9311 41.7835 49.5565 41.4816 49.2724C41.1798 48.9847 40.7909 48.8409 40.3151 48.8409C39.9884 48.8409 39.683 48.9279 39.3989 49.1019C39.1183 49.2759 38.8911 49.5174 38.7171 49.8263C38.5466 50.1317 38.4614 50.4851 38.4614 50.8864V56H37.2043ZM53.6718 56.1705C52.8834 56.1705 52.2034 55.9964 51.6317 55.6484C51.0635 55.2969 50.6249 54.8068 50.316 54.1783C50.0106 53.5462 49.8579 52.8111 49.8579 51.973C49.8579 51.1349 50.0106 50.3963 50.316 49.7571C50.6249 49.1143 51.0546 48.6136 51.605 48.255C52.159 47.8928 52.8053 47.7116 53.5439 47.7116C53.9701 47.7116 54.3909 47.7827 54.8064 47.9247C55.2219 48.0668 55.6001 48.2976 55.941 48.6172C56.2819 48.9332 56.5535 49.3523 56.7559 49.8743C56.9584 50.3963 57.0596 51.0391 57.0596 51.8026V52.3352H50.7528V51.2486H55.7812C55.7812 50.7869 55.6888 50.375 55.5042 50.0128C55.3231 49.6506 55.0638 49.3647 54.7265 49.1552C54.3927 48.9457 53.9985 48.8409 53.5439 48.8409C53.0432 48.8409 52.61 48.9652 52.2442 49.2138C51.882 49.4588 51.6032 49.7784 51.4079 50.1726C51.2126 50.5668 51.115 50.9893 51.115 51.4403V52.1648C51.115 52.7827 51.2215 53.3065 51.4346 53.7362C51.6512 54.1623 51.9513 54.4872 52.3348 54.7109C52.7183 54.9311 53.164 55.0412 53.6718 55.0412C54.002 55.0412 54.3003 54.995 54.5667 54.9027C54.8366 54.8068 55.0692 54.6648 55.2645 54.4766C55.4598 54.2848 55.6107 54.0469 55.7172 53.7628L56.9317 54.1037C56.8039 54.5156 56.589 54.8778 56.2872 55.1903C55.9854 55.4993 55.6125 55.7408 55.1686 55.9148C54.7247 56.0852 54.2258 56.1705 53.6718 56.1705Z" fill="#35B8BE"/>
<path d="M340.773 49H339.364C339.28 48.5947 339.134 48.2386 338.926 47.9318C338.722 47.625 338.472 47.3674 338.176 47.1591C337.884 46.947 337.561 46.7879 337.205 46.6818C336.848 46.5758 336.477 46.5227 336.091 46.5227C335.386 46.5227 334.748 46.7008 334.176 47.0568C333.608 47.4129 333.155 47.9375 332.818 48.6307C332.485 49.3239 332.318 50.1742 332.318 51.1818C332.318 52.1894 332.485 53.0398 332.818 53.733C333.155 54.4261 333.608 54.9508 334.176 55.3068C334.748 55.6629 335.386 55.8409 336.091 55.8409C336.477 55.8409 336.848 55.7879 337.205 55.6818C337.561 55.5758 337.884 55.4186 338.176 55.2102C338.472 54.9981 338.722 54.7386 338.926 54.4318C339.134 54.1212 339.28 53.7652 339.364 53.3636H340.773C340.667 53.9583 340.473 54.4905 340.193 54.9602C339.913 55.4299 339.564 55.8295 339.148 56.1591C338.731 56.4848 338.263 56.733 337.744 56.9034C337.229 57.0739 336.678 57.1591 336.091 57.1591C335.098 57.1591 334.216 56.9167 333.443 56.4318C332.67 55.947 332.063 55.2576 331.619 54.3636C331.176 53.4697 330.955 52.4091 330.955 51.1818C330.955 49.9545 331.176 48.8939 331.619 48C332.063 47.1061 332.67 46.4167 333.443 45.9318C334.216 45.447 335.098 45.2045 336.091 45.2045C336.678 45.2045 337.229 45.2898 337.744 45.4602C338.263 45.6307 338.731 45.8807 339.148 46.2102C339.564 46.536 339.913 46.9337 340.193 47.4034C340.473 47.8693 340.667 48.4015 340.773 49ZM346.413 57.1818C345.625 57.1818 344.934 56.9943 344.339 56.6193C343.749 56.2443 343.286 55.7197 342.953 55.0455C342.624 54.3712 342.459 53.5833 342.459 52.6818C342.459 51.7727 342.624 50.9792 342.953 50.3011C343.286 49.6231 343.749 49.0966 344.339 48.7216C344.934 48.3466 345.625 48.1591 346.413 48.1591C347.201 48.1591 347.891 48.3466 348.482 48.7216C349.076 49.0966 349.538 49.6231 349.868 50.3011C350.201 50.9792 350.368 51.7727 350.368 52.6818C350.368 53.5833 350.201 54.3712 349.868 55.0455C349.538 55.7197 349.076 56.2443 348.482 56.6193C347.891 56.9943 347.201 57.1818 346.413 57.1818ZM346.413 55.9773C347.012 55.9773 347.504 55.8239 347.891 55.517C348.277 55.2102 348.563 54.8068 348.749 54.3068C348.934 53.8068 349.027 53.2652 349.027 52.6818C349.027 52.0985 348.934 51.5549 348.749 51.0511C348.563 50.5473 348.277 50.1402 347.891 49.8295C347.504 49.5189 347.012 49.3636 346.413 49.3636C345.815 49.3636 345.322 49.5189 344.936 49.8295C344.55 50.1402 344.264 50.5473 344.078 51.0511C343.893 51.5549 343.8 52.0985 343.8 52.6818C343.8 53.2652 343.893 53.8068 344.078 54.3068C344.264 54.8068 344.55 55.2102 344.936 55.517C345.322 55.8239 345.815 55.9773 346.413 55.9773ZM353.756 51.75V57H352.415V48.2727H353.71V49.6364H353.824C354.028 49.1932 354.339 48.8371 354.756 48.5682C355.172 48.2955 355.71 48.1591 356.369 48.1591C356.96 48.1591 357.477 48.2803 357.92 48.5227C358.364 48.7614 358.708 49.125 358.955 49.6136C359.201 50.0985 359.324 50.7121 359.324 51.4545V57H357.983V51.5455C357.983 50.8598 357.805 50.3258 357.449 49.9432C357.093 49.5568 356.604 49.3636 355.983 49.3636C355.555 49.3636 355.172 49.4564 354.835 49.642C354.502 49.8277 354.239 50.0985 354.045 50.4545C353.852 50.8106 353.756 51.2424 353.756 51.75ZM365.57 48.2727V49.4091H361.047V48.2727H365.57ZM362.365 46.1818H363.706V54.5C363.706 54.8788 363.761 55.1629 363.871 55.3523C363.984 55.5379 364.128 55.6629 364.303 55.7273C364.481 55.7879 364.668 55.8182 364.865 55.8182C365.013 55.8182 365.134 55.8106 365.229 55.7955C365.323 55.7765 365.399 55.7614 365.456 55.75L365.729 56.9545C365.638 56.9886 365.511 57.0227 365.348 57.0568C365.185 57.0947 364.979 57.1136 364.729 57.1136C364.35 57.1136 363.979 57.0322 363.615 56.8693C363.255 56.7064 362.956 56.4583 362.717 56.125C362.482 55.7917 362.365 55.3712 362.365 54.8636V46.1818ZM370.155 57.2045C369.602 57.2045 369.1 57.1004 368.649 56.892C368.198 56.6799 367.84 56.375 367.575 55.9773C367.31 55.5758 367.178 55.0909 367.178 54.5227C367.178 54.0227 367.276 53.6174 367.473 53.3068C367.67 52.9924 367.933 52.7462 368.263 52.5682C368.592 52.3902 368.956 52.2576 369.354 52.1705C369.755 52.0795 370.159 52.0076 370.564 51.9545C371.094 51.8864 371.524 51.8352 371.854 51.8011C372.187 51.7633 372.429 51.7008 372.581 51.6136C372.736 51.5265 372.814 51.375 372.814 51.1591V51.1136C372.814 50.553 372.661 50.1174 372.354 49.8068C372.051 49.4962 371.59 49.3409 370.973 49.3409C370.333 49.3409 369.831 49.4811 369.467 49.7614C369.104 50.0417 368.848 50.3409 368.7 50.6591L367.428 50.2045C367.655 49.6742 367.958 49.2614 368.337 48.9659C368.719 48.6667 369.136 48.4583 369.587 48.3409C370.041 48.2197 370.488 48.1591 370.928 48.1591C371.208 48.1591 371.53 48.1932 371.893 48.2614C372.261 48.3258 372.615 48.4602 372.956 48.6648C373.301 48.8693 373.587 49.178 373.814 49.5909C374.041 50.0038 374.155 50.5568 374.155 51.25V57H372.814V55.8182H372.746C372.655 56.0076 372.503 56.2102 372.291 56.4261C372.079 56.642 371.797 56.8258 371.445 56.9773C371.092 57.1288 370.662 57.2045 370.155 57.2045ZM370.359 56C370.89 56 371.337 55.8958 371.7 55.6875C372.068 55.4792 372.344 55.2102 372.53 54.8807C372.719 54.5511 372.814 54.2045 372.814 53.8409V52.6136C372.757 52.6818 372.632 52.7443 372.439 52.8011C372.25 52.8542 372.03 52.9015 371.78 52.9432C371.534 52.9811 371.293 53.0152 371.058 53.0455C370.827 53.072 370.64 53.0947 370.496 53.1136C370.147 53.1591 369.821 53.233 369.518 53.3352C369.219 53.4337 368.977 53.5833 368.791 53.7841C368.609 53.9811 368.518 54.25 368.518 54.5909C368.518 55.0568 368.691 55.4091 369.036 55.6477C369.384 55.8826 369.825 56 370.359 56ZM380.148 57.1818C379.33 57.1818 378.625 56.9886 378.034 56.6023C377.443 56.2159 376.989 55.6837 376.67 55.0057C376.352 54.3277 376.193 53.553 376.193 52.6818C376.193 51.7955 376.356 51.0133 376.682 50.3352C377.011 49.6534 377.47 49.1212 378.057 48.7386C378.648 48.3523 379.337 48.1591 380.125 48.1591C380.739 48.1591 381.292 48.2727 381.784 48.5C382.277 48.7273 382.68 49.0455 382.994 49.4545C383.309 49.8636 383.504 50.3409 383.58 50.8864H382.239C382.136 50.4886 381.909 50.1364 381.557 49.8295C381.208 49.5189 380.739 49.3636 380.148 49.3636C379.625 49.3636 379.167 49.5 378.773 49.7727C378.383 50.0417 378.078 50.4223 377.858 50.9148C377.642 51.4034 377.534 51.9773 377.534 52.6364C377.534 53.3106 377.64 53.8977 377.852 54.3977C378.068 54.8977 378.371 55.286 378.761 55.5625C379.155 55.839 379.617 55.9773 380.148 55.9773C380.496 55.9773 380.812 55.9167 381.097 55.7955C381.381 55.6742 381.621 55.5 381.818 55.2727C382.015 55.0455 382.155 54.7727 382.239 54.4545H383.58C383.504 54.9697 383.316 55.4337 383.017 55.8466C382.722 56.2557 382.33 56.5814 381.841 56.8239C381.356 57.0625 380.792 57.1818 380.148 57.1818ZM389.335 48.2727V49.4091H384.812V48.2727H389.335ZM386.131 46.1818H387.472V54.5C387.472 54.8788 387.527 55.1629 387.636 55.3523C387.75 55.5379 387.894 55.6629 388.068 55.7273C388.246 55.7879 388.434 55.8182 388.631 55.8182C388.778 55.8182 388.9 55.8106 388.994 55.7955C389.089 55.7765 389.165 55.7614 389.222 55.75L389.494 56.9545C389.403 56.9886 389.277 57.0227 389.114 57.0568C388.951 57.0947 388.744 57.1136 388.494 57.1136C388.116 57.1136 387.744 57.0322 387.381 56.8693C387.021 56.7064 386.722 56.4583 386.483 56.125C386.248 55.7917 386.131 55.3712 386.131 54.8636V46.1818Z" fill="#28224B"/>
<path d="M175.099 48.5H173.778C173.7 48.12 173.564 47.7862 173.368 47.4986C173.176 47.2109 172.942 46.9695 172.665 46.7741C172.392 46.5753 172.088 46.4261 171.754 46.3267C171.42 46.2273 171.072 46.1776 170.71 46.1776C170.05 46.1776 169.451 46.3445 168.915 46.6783C168.382 47.0121 167.958 47.5039 167.642 48.1538C167.33 48.8036 167.173 49.6009 167.173 50.5455C167.173 51.4901 167.33 52.2873 167.642 52.9371C167.958 53.587 168.382 54.0788 168.915 54.4126C169.451 54.7464 170.05 54.9134 170.71 54.9134C171.072 54.9134 171.42 54.8636 171.754 54.7642C172.088 54.6648 172.392 54.5174 172.665 54.3221C172.942 54.1232 173.176 53.88 173.368 53.5923C173.564 53.3011 173.7 52.9673 173.778 52.5909H175.099C175 53.1484 174.819 53.6474 174.556 54.0877C174.293 54.5281 173.967 54.9027 173.576 55.2116C173.185 55.517 172.747 55.7496 172.26 55.9094C171.777 56.0692 171.261 56.1491 170.71 56.1491C169.78 56.1491 168.952 55.9219 168.228 55.4673C167.504 55.0128 166.934 54.3665 166.518 53.5284C166.103 52.6903 165.895 51.696 165.895 50.5455C165.895 49.3949 166.103 48.4006 166.518 47.5625C166.934 46.7244 167.504 46.0781 168.228 45.6236C168.952 45.169 169.78 44.9418 170.71 44.9418C171.261 44.9418 171.777 45.0217 172.26 45.1815C172.747 45.3413 173.185 45.5756 173.576 45.8846C173.967 46.19 174.293 46.5629 174.556 47.0032C174.819 47.44 175 47.9389 175.099 48.5ZM180.388 56.1705C179.649 56.1705 179.001 55.9947 178.443 55.6431C177.889 55.2915 177.456 54.7997 177.144 54.1676C176.835 53.5355 176.68 52.7969 176.68 51.9517C176.68 51.0994 176.835 50.3555 177.144 49.7198C177.456 49.0842 177.889 48.5906 178.443 48.239C179.001 47.8874 179.649 47.7116 180.388 47.7116C181.126 47.7116 181.772 47.8874 182.326 48.239C182.884 48.5906 183.317 49.0842 183.626 49.7198C183.939 50.3555 184.095 51.0994 184.095 51.9517C184.095 52.7969 183.939 53.5355 183.626 54.1676C183.317 54.7997 182.884 55.2915 182.326 55.6431C181.772 55.9947 181.126 56.1705 180.388 56.1705ZM180.388 55.0412C180.949 55.0412 181.41 54.8974 181.772 54.6097C182.135 54.3221 182.403 53.9439 182.577 53.4751C182.751 53.0064 182.838 52.4986 182.838 51.9517C182.838 51.4048 182.751 50.8952 182.577 50.4229C182.403 49.9506 182.135 49.5689 181.772 49.2777C181.41 48.9865 180.949 48.8409 180.388 48.8409C179.826 48.8409 179.365 48.9865 179.003 49.2777C178.64 49.5689 178.372 49.9506 178.198 50.4229C178.024 50.8952 177.937 51.4048 177.937 51.9517C177.937 52.4986 178.024 53.0064 178.198 53.4751C178.372 53.9439 178.64 54.3221 179.003 54.6097C179.365 54.8974 179.826 55.0412 180.388 55.0412ZM186.014 56V47.8182H187.228V49.0966H187.335C187.505 48.6598 187.781 48.3207 188.161 48.0792C188.54 47.8342 188.997 47.7116 189.529 47.7116C190.069 47.7116 190.518 47.8342 190.877 48.0792C191.239 48.3207 191.522 48.6598 191.724 49.0966H191.809C192.019 48.674 192.333 48.3384 192.752 48.0898C193.171 47.8377 193.674 47.7116 194.26 47.7116C194.991 47.7116 195.589 47.9407 196.055 48.3988C196.52 48.8533 196.752 49.5618 196.752 50.5241V56H195.495V50.5241C195.495 49.9205 195.33 49.489 195 49.2298C194.67 48.9705 194.281 48.8409 193.833 48.8409C193.258 48.8409 192.813 49.0149 192.496 49.3629C192.18 49.7074 192.022 50.1442 192.022 50.6733V56H190.744V50.3963C190.744 49.9311 190.593 49.5565 190.291 49.2724C189.989 48.9847 189.6 48.8409 189.125 48.8409C188.798 48.8409 188.493 48.9279 188.208 49.1019C187.928 49.2759 187.701 49.5174 187.527 49.8263C187.356 50.1317 187.271 50.4851 187.271 50.8864V56H186.014ZM199.051 59.0682V47.8182H200.265V49.1179H200.415C200.507 48.9759 200.635 48.7947 200.798 48.5746C200.965 48.3509 201.203 48.152 201.512 47.978C201.824 47.8004 202.247 47.7116 202.78 47.7116C203.469 47.7116 204.076 47.8839 204.601 48.2283C205.127 48.5728 205.537 49.0611 205.832 49.6932C206.127 50.3253 206.274 51.071 206.274 51.9304C206.274 52.7969 206.127 53.5479 205.832 54.1836C205.537 54.8157 205.129 55.3058 204.607 55.6538C204.085 55.9982 203.483 56.1705 202.801 56.1705C202.275 56.1705 201.855 56.0835 201.539 55.9094C201.222 55.7319 200.979 55.5312 200.809 55.3075C200.638 55.0803 200.507 54.892 200.415 54.7429H200.308V59.0682H199.051ZM200.287 51.9091C200.287 52.527 200.377 53.0721 200.558 53.5444C200.74 54.0131 201.004 54.3807 201.352 54.647C201.7 54.9098 202.126 55.0412 202.631 55.0412C203.156 55.0412 203.595 54.9027 203.946 54.6257C204.301 54.3452 204.568 53.9687 204.745 53.4964C204.926 53.0206 205.017 52.4915 205.017 51.9091C205.017 51.3338 204.928 50.8153 204.751 50.3537C204.577 49.8885 204.312 49.521 203.957 49.2511C203.605 48.9776 203.163 48.8409 202.631 48.8409C202.119 48.8409 201.689 48.9705 201.341 49.2298C200.993 49.4854 200.731 49.8441 200.553 50.3058C200.376 50.7638 200.287 51.2983 200.287 51.9091ZM210.599 56.1918C210.081 56.1918 209.61 56.0941 209.188 55.8988C208.765 55.6999 208.43 55.4141 208.181 55.0412C207.932 54.6648 207.808 54.2102 207.808 53.6776C207.808 53.2088 207.9 52.8288 208.085 52.5376C208.27 52.2429 208.517 52.0121 208.825 51.8452C209.134 51.6783 209.475 51.554 209.848 51.4723C210.225 51.3871 210.603 51.3196 210.983 51.2699C211.48 51.206 211.883 51.158 212.192 51.1261C212.504 51.0906 212.732 51.032 212.874 50.9503C213.019 50.8686 213.092 50.7266 213.092 50.5241V50.4815C213.092 49.956 212.948 49.5476 212.661 49.2564C212.377 48.9652 211.945 48.8196 211.366 48.8196C210.766 48.8196 210.296 48.951 209.955 49.2138C209.614 49.4766 209.374 49.7571 209.236 50.0554L208.042 49.6293C208.256 49.1321 208.54 48.745 208.895 48.468C209.253 48.1875 209.644 47.9922 210.067 47.8821C210.493 47.7685 210.912 47.7116 211.324 47.7116C211.586 47.7116 211.888 47.7436 212.229 47.8075C212.574 47.8679 212.906 47.994 213.225 48.1857C213.548 48.3775 213.817 48.6669 214.03 49.054C214.243 49.4411 214.349 49.9595 214.349 50.6094V56H213.092V54.892H213.028C212.943 55.0696 212.801 55.2596 212.602 55.462C212.403 55.6644 212.139 55.8366 211.808 55.9787C211.478 56.1207 211.075 56.1918 210.599 56.1918ZM210.791 55.0625C211.288 55.0625 211.707 54.9648 212.048 54.7695C212.393 54.5742 212.652 54.3221 212.826 54.0131C213.003 53.7042 213.092 53.3793 213.092 53.0384V51.8878C213.039 51.9517 212.922 52.0103 212.741 52.0636C212.563 52.1133 212.357 52.1577 212.123 52.1967C211.892 52.2322 211.666 52.2642 211.446 52.2926C211.23 52.3175 211.054 52.3388 210.919 52.3565C210.592 52.3991 210.287 52.4684 210.003 52.5643C209.722 52.6566 209.495 52.7969 209.321 52.9851C209.15 53.1697 209.065 53.4219 209.065 53.7415C209.065 54.1783 209.227 54.5085 209.55 54.7322C209.877 54.9524 210.29 55.0625 210.791 55.0625ZM217.901 51.0781V56H216.644V47.8182H217.858V49.0966H217.965C218.157 48.6811 218.448 48.3473 218.838 48.0952C219.229 47.8395 219.733 47.7116 220.351 47.7116C220.905 47.7116 221.39 47.8253 221.805 48.0526C222.221 48.2763 222.544 48.6172 222.775 49.0753C223.006 49.5298 223.121 50.1051 223.121 50.8011V56H221.864V50.8864C221.864 50.2436 221.697 49.7429 221.363 49.3842C221.029 49.022 220.571 48.8409 219.989 48.8409C219.588 48.8409 219.229 48.9279 218.913 49.1019C218.6 49.2759 218.354 49.5298 218.172 49.8636C217.991 50.1974 217.901 50.6023 217.901 51.0781ZM225.935 59.0682C225.722 59.0682 225.532 59.0504 225.365 59.0149C225.198 58.983 225.083 58.951 225.019 58.919L225.338 57.8111C225.644 57.8892 225.914 57.9176 226.148 57.8963C226.382 57.875 226.59 57.7702 226.771 57.582C226.956 57.3974 227.124 57.0973 227.277 56.6818L227.512 56.0426L224.486 47.8182H225.85L228.108 54.3381H228.193L230.452 47.8182H231.816L228.343 57.1932C228.186 57.6158 227.993 57.9656 227.762 58.2425C227.531 58.5231 227.263 58.7308 226.958 58.8658C226.656 59.0007 226.315 59.0682 225.935 59.0682Z" fill="#28224B"/>
<g clip-path="url(#clip0_2_956)">
<path d="M422 28C422 25.7909 423.791 24 426 24H473C475.209 24 477 25.7909 477 28V75C477 77.2091 475.209 79 473 79H426C423.791 79 422 77.2091 422 75V28Z" fill="#35B8BE"/>
<g opacity="0.2">
<path opacity="0.2" fill-rule="evenodd" clip-rule="evenodd" d="M421.283 -28.2939C422.924 -24.8601 423.211 -17.6773 423.897 -11.7098C424.534 -6.15846 425.181 -0.750968 425.127 5.16887C425.064 12.1429 425.269 20.7421 423.569 24.9157C421.855 29.1214 419.437 24.1155 417.294 24.3969C415.355 24.6499 413.26 30.0547 411.652 26.476C410.027 22.857 410.803 14.3557 410.092 8.35885C409.435 2.8286 407.498 -1.19193 407.669 -7.08976C407.843 -13.0756 409.551 -17.099 410.943 -21.0058C412.302 -24.8173 413.794 -27.9558 415.545 -29.1887C417.462 -30.5408 419.626 -31.7599 421.283 -28.2939Z" stroke="white"/>
<path opacity="0.2" fill-rule="evenodd" clip-rule="evenodd" d="M422.295 -35.2286C424.336 -30.9588 424.694 -22.0288 425.547 -14.6166C426.341 -7.71412 427.144 -0.995699 427.079 6.36422C427.002 15.0276 427.258 25.7133 425.144 30.8998C423.015 36.1248 420.007 29.8986 417.343 30.2414C414.933 30.5549 412.329 37.2686 410.33 32.8182C408.309 28.3201 409.273 17.7555 408.387 10.303C407.57 3.42802 405.161 -1.57038 405.372 -8.8973C405.587 -16.3342 407.711 -21.3336 409.44 -26.1855C411.128 -30.9201 412.984 -34.819 415.16 -36.349C417.544 -38.0274 420.235 -39.5406 422.295 -35.2286Z" stroke="white"/>
<path opacity="0.2" fill-rule="evenodd" clip-rule="evenodd" d="M423.237 -41.6647C425.648 -36.623 426.073 -26.0741 427.081 -17.3117C428.019 -9.15886 428.969 -1.22041 428.893 7.47143C428.803 17.706 429.106 30.3332 426.609 36.4556C424.093 42.6248 420.538 35.2685 417.391 35.6746C414.543 36.0413 411.467 43.9687 409.104 38.7079C406.716 33.3912 407.853 20.9153 406.806 12.1107C405.841 3.98996 402.993 -1.91983 403.243 -10.575C403.496 -19.3631 406.006 -25.2672 408.049 -30.9955C410.044 -36.5871 412.237 -41.1909 414.807 -42.9976C417.622 -44.9739 420.801 -46.7586 423.237 -41.6647Z" stroke="white"/>
<path opacity="0.2" fill-rule="evenodd" clip-rule="evenodd" d="M424.212 -48.3498C427.008 -42.4996 427.501 -30.2719 428.671 -20.1162C429.76 -10.6644 430.861 -1.45914 430.773 8.61961C430.67 20.4877 431.024 35.1257 428.127 42.2234C425.21 49.3734 421.087 40.842 417.437 41.3067C414.134 41.7284 410.568 50.9208 407.827 44.8194C405.058 38.6549 406.376 24.1889 405.161 13.98C404.041 4.56488 400.739 -2.28877 401.029 -12.3281C401.323 -22.5141 404.232 -29.36 406.601 -36.0003C408.914 -42.4811 411.456 -47.8178 414.437 -49.9097C417.701 -52.1903 421.388 -54.2595 424.212 -48.3498Z" stroke="white"/>
<path opacity="0.2" fill-rule="evenodd" clip-rule="evenodd" d="M425.405 -56.5215C428.672 -49.684 429.249 -35.4016 430.616 -23.5353C431.888 -12.4932 433.176 -1.74185 433.073 10.03C432.953 23.8909 433.366 40.9898 429.983 49.281C426.577 57.6291 421.758 47.6619 417.495 48.2055C413.636 48.6968 409.47 59.4293 406.268 52.3032C403.032 45.1009 404.571 28.2042 403.151 16.2784C401.842 5.27835 397.984 -2.72506 398.321 -14.4492C398.663 -26.3466 402.062 -34.3411 404.829 -42.0951C407.531 -49.665 410.5 -55.8948 413.983 -58.3387C417.799 -61.0117 422.106 -63.424 425.405 -56.5215Z" stroke="white"/>
<path opacity="0.2" fill-rule="evenodd" clip-rule="evenodd" d="M426.707 -65.4342C430.488 -57.5252 431.155 -40.9989 432.737 -27.269C434.21 -14.4925 435.701 -2.05138 435.583 11.5675C435.444 27.6046 435.923 47.386 432.009 56.9743C428.067 66.6323 422.493 55.098 417.559 55.7269C413.094 56.2925 408.274 68.7096 404.568 60.4624C400.824 52.129 402.604 32.5809 400.961 18.7814C399.445 6.05711 394.981 -3.20829 395.37 -16.7695C395.765 -30.5369 399.697 -39.7779 402.899 -48.753C406.026 -57.509 409.46 -64.7159 413.491 -67.5393C417.905 -70.6339 422.889 -73.423 426.707 -65.4342Z" stroke="white"/>
<path opacity="0.2" fill-rule="evenodd" clip-rule="evenodd" d="M427.972 -74.1026C432.253 -65.1468 433.009 -46.4414 434.801 -30.9002C436.469 -16.4389 438.157 -2.35614 438.024 13.0604C437.868 31.2104 438.41 53.6021 433.98 64.4555C429.518 75.3849 423.207 62.3258 417.622 63.0344C412.568 63.676 407.111 77.7269 402.916 68.3916C398.677 58.9563 400.692 36.8305 398.831 21.2114C397.115 6.8097 392.061 -3.67963 392.501 -19.0301C392.948 -34.6135 397.399 -45.0734 401.023 -55.2273C404.561 -65.1383 408.45 -73.2942 413.012 -76.4887C418.009 -79.9886 423.65 -83.1455 427.972 -74.1026Z" stroke="white"/>
<path opacity="0.2" fill-rule="evenodd" clip-rule="evenodd" d="M429.13 -82.0269C433.867 -72.1178 434.704 -51.4195 436.688 -34.2247C438.533 -18.2215 440.401 -2.64006 440.255 14.4191C440.082 34.5033 440.683 59.2817 435.781 71.2891C430.843 83.3836 423.86 68.9326 417.678 69.7154C412.085 70.4212 406.048 85.9706 401.405 75.6379C396.715 65.1953 398.943 40.7128 396.882 23.4318C394.984 7.4928 389.39 -4.11411 389.877 -21.0999C390.371 -38.3415 395.296 -49.9171 399.307 -61.1517C403.222 -72.1169 407.525 -81.1352 412.573 -84.6735C418.104 -88.5428 424.345 -92.0333 429.13 -82.0269Z" stroke="white"/>
<path opacity="0.2" fill-rule="evenodd" clip-rule="evenodd" d="M430.359 -90.4451C435.582 -79.5193 436.505 -56.706 438.692 -37.7484C440.727 -20.1062 442.786 -2.93064 442.625 15.8766C442.436 38.0123 443.1 65.3251 437.694 78.56C432.25 91.8901 424.552 75.9604 417.739 76.8184C411.573 77.5985 404.918 94.7348 399.8 83.3443C394.628 71.8328 397.085 44.844 394.814 25.7975C392.72 8.22956 386.554 -4.56602 387.09 -23.2899C387.635 -42.296 393.065 -55.0543 397.485 -67.4385C401.8 -79.5256 406.544 -89.4703 412.109 -93.3643C418.205 -97.6295 425.086 -101.478 430.359 -90.4451Z" stroke="white"/>
<path opacity="0.2" fill-rule="evenodd" clip-rule="evenodd" d="M431.697 -99.6057C437.448 -87.5735 438.464 -62.458 440.872 -41.5809C443.113 -22.1595 445.381 -3.24781 445.204 17.4524C444.996 41.8256 445.726 71.8969 439.776 86.4673C433.783 101.143 425.306 83.6039 417.804 84.549C411.015 85.4042 403.688 104.272 398.052 91.7292C392.357 79.0554 395.062 49.3461 392.562 28.3691C390.256 9.02744 383.466 -5.06534 384.056 -25.6784C384.656 -46.6013 390.633 -60.6483 395.501 -74.281C400.252 -87.5882 405.475 -98.5353 411.603 -102.823C418.314 -107.52 425.889 -111.757 431.697 -99.6057Z" stroke="white"/>
</g>
</g>
<g filter="url(#filter0_d_2_956)">
<path d="M458 30.5C458 23.5964 463.596 18 470.5 18C477.404 18 483 23.5964 483 30.5C483 37.4036 477.404 43 470.5 43C463.596 43 458 37.4036 458 30.5Z" fill="white"/>
</g>
<path d="M471 35.1293C470.304 35.1293 469.712 34.94 469.223 34.5614C468.733 34.1798 468.359 33.6274 468.101 32.9041C467.842 32.1778 467.713 31.3007 467.713 30.2727C467.713 29.2509 467.842 28.3784 468.101 27.6552C468.362 26.9289 468.738 26.3749 469.227 25.9933C469.72 25.6085 470.311 25.4162 471 25.4162C471.689 25.4162 472.279 25.6085 472.768 25.9933C473.261 26.3749 473.636 26.9289 473.895 27.6552C474.156 28.3784 474.287 29.2509 474.287 30.2727C474.287 31.3007 474.158 32.1778 473.899 32.9041C473.641 33.6274 473.267 34.1798 472.777 34.5614C472.288 34.94 471.696 35.1293 471 35.1293ZM471 34.1136C471.689 34.1136 472.225 33.7812 472.607 33.1165C472.988 32.4517 473.179 31.5038 473.179 30.2727C473.179 29.4541 473.091 28.757 472.916 28.1815C472.743 27.6059 472.494 27.1674 472.168 26.8658C471.845 26.5642 471.455 26.4134 471 26.4134C470.317 26.4134 469.783 26.7504 469.398 27.4244C469.013 28.0953 468.821 29.0447 468.821 30.2727C468.821 31.0914 468.907 31.7869 469.08 32.3594C469.252 32.9318 469.5 33.3673 469.823 33.6658C470.149 33.9644 470.541 34.1136 471 34.1136Z" fill="#35B8BE"/>
<g clip-path="url(#clip1_2_956)">
<path d="M438.832 45H435V43H441.462L442.122 47H458.529V52.9384L440.543 55.3694L438.832 45ZM457.794 60C456.576 60 455.588 59.3284 455.588 58.5C455.588 57.6716 456.576 57 457.794 57C459.012 57 460 57.6716 460 58.5C460 59.3284 459.012 60 457.794 60ZM443.088 60C441.87 60 440.882 59.3284 440.882 58.5C440.882 57.6716 441.87 57 443.088 57C444.307 57 445.294 57.6716 445.294 58.5C445.294 59.3284 444.307 60 443.088 60Z" fill="white"/>
</g>
<defs>
<filter id="filter0_d_2_956" x="440" y="0" width="75" height="75" filterUnits="userSpaceOnUse" color-interpolation-filters="sRGB">
<feFlood flood-opacity="0" result="BackgroundImageFix"/>
<feColorMatrix in="SourceAlpha" type="matrix" values="0 0 0 0 0 0 0 0 0 0 0 0 0 0 0 0 0 0 127 0" result="hardAlpha"/>
<feOffset dx="7" dy="7"/>
<feGaussianBlur stdDeviation="12.5"/>
<feColorMatrix type="matrix" values="0 0 0 0 0.494118 0 0 0 0 0.509804 0 0 0 0 0.560784 0 0 0 0.27 0"/>
<feBlend mode="normal" in2="BackgroundImageFix" result="effect1_dropShadow_2_956"/>
<feBlend mode="normal" in="SourceGraphic" in2="effect1_dropShadow_2_956" result="shape"/>
</filter>
<clipPath id="clip0_2_956">
<path d="M422 28C422 25.7909 423.791 24 426 24H473C475.209 24 477 25.7909 477 28V75C477 77.2091 475.209 79 473 79H426C423.791 79 422 77.2091 422 75V28Z" fill="white"/>
</clipPath>
<clipPath id="clip1_2_956">
<rect width="25" height="17" fill="white" transform="translate(435 43)"/>
</clipPath>
</defs>
</svg>
